<?xml version="1.0" encoding="utf-8"?>
<!-- Generator: Adobe Illustrator 16.0.0, SVG Export Plug-In . SVG Version: 6.00 Build 0)  -->
<!DOCTYPE svg PUBLIC "-//W3C//DTD SVG 1.1//EN" "http://www.w3.org/Graphics/SVG/1.1/DTD/svg11.dtd">
<svg version="1.1" id="Ebene_1" xmlns="http://www.w3.org/2000/svg" xmlns:xlink="http://www.w3.org/1999/xlink" x="0px" y="0px"
	 width="1024px" height="768px" viewBox="0 0 1024 768" enable-background="new 0 0 1024 768" xml:space="preserve">
<g>
	<path d="M96.199,220.8v4.2H72.799c-0.6-10.6-0.6-8.4-7.6-37.399c-8-33.2-9-33.799-14.8-33.799H50V212.8c0,6,0.4,6.2,9.6,8v4.2H22
		v-4.2c9.2-1.8,9.6-2,9.6-8V87.202c0-6-0.4-6.2-9.6-8v-4.2h35.199c21.6,0,31.8,13,31.8,35.199c0,26-12.2,39-28.2,41.2
		c10.8,1,13.2,4.4,22,34.799C92.599,219.8,91.599,218.6,96.199,220.8z M69.599,113.002c0-22.6-4.6-33.6-12.4-33.6
		c-5.2,0-7.2,2.2-7.2,14.399v54.799h3.4C63.199,148.601,69.599,139.201,69.599,113.002z"/>
	<path d="M171.598,220.8v4.2h-35.399v-4.2c13.6-1.6,13.6-0.4,11.2-11.8l-5.6-28h-25.399l-4.8,28c-2,11.4-1.4,10.2,12.4,11.8v4.2
		h-25.8v-4.2c4.4-3,4-4,5.6-11.8l30.199-142.998h2l30,142.998C167.798,217.2,167.398,218,171.598,220.8z M140.599,175.401
		l-12.6-61.799l-10.6,61.799H140.599z"/>
	<path d="M247.998,150.201c0,54.399-17.2,74.799-42,74.799h-32.399v-4.2c9.2-1.8,9.6-2,9.6-8V87.202c0-6-0.4-6.2-9.6-8v-4.2h32.399
		C236.998,75.002,247.998,104.002,247.998,150.201z M228.798,152.601c0-48.799-8.6-73.199-20-73.199c-5.2,0-7.2,2.2-7.2,14.399
		V206.2c0,12,2,14.4,7.6,14.4C218.398,220.6,228.798,205.4,228.798,152.601z"/>
	<path d="M291.599,220.8v4.2h-37.6v-4.2c9.2-1.8,9.6-2,9.6-8V87.202c0-6-0.4-6.2-9.6-8v-4.2h37.6v4.2c-9.2,1.8-9.6,2-9.6,8V212.8
		C281.999,218.8,282.398,219,291.599,220.8z"/>
	<path d="M298.597,150.001c0-52.399,13-77.799,35.399-77.799c8.4,0,15.2,3.4,19.6,7.8v39.799h-2c-12.2-35.6-14.8-43.2-21.2-43.2
		c-9,0-12.2,23.2-12.2,71.999c0,41.799,7.2,74.399,15.4,74.399c5,0,6.2-4,18-42.799h2V219.6c-4.2,4.2-11.6,7.8-19.6,7.8
		C311.596,227.4,298.597,204,298.597,150.001z"/>
	<path d="M433.995,220.8v4.2h-35.399v-4.2c13.6-1.6,13.6-0.4,11.2-11.8l-5.6-28h-25.399l-4.8,28c-2,11.4-1.4,10.2,12.4,11.8v4.2
		h-25.8v-4.2c4.4-3,4-4,5.6-11.8l30.199-142.998h2l30,142.998C430.195,217.2,429.795,218,433.995,220.8z M402.996,175.401
		l-12.6-61.799l-10.6,61.799H402.996z"/>
	<path d="M496.595,181.201h2V226.4c-10.6-1-21.199-1.4-29.799-1.4h-32.799v-4.2c9.2-1.8,9.6-2,9.6-8V87.202c0-6-0.4-6.2-9.6-8v-4.2
		h41.599v4.2c-13.2,1.8-13.6,2-13.6,8V220.2h15.6c5,0,5.4-0.6,7-5.6L496.595,181.201z M558.395,166.801v4.2h-35.2v-4.2
		c11.4-1.2,12-1,7.2-11.8l-10.399-23.2l-9,23.2c-4.2,11-3.2,10.6,5.2,11.8v4.2h-24.2v-4.2c7.2-1.8,6.6-2.8,11.2-11.8l14.6-28.2
		l-16-35.799c-4-9-4.8-9.8-10.2-11.8v-4.2h35.2v4.2c-12.6,1.2-12,1-7.2,11.8l11,24.6l8.399-24.6c3.801-11,3.2-10.6-5.199-11.8v-4.2
		h24.199v4.2c-7.2,1.8-7,2.8-11.2,11.8l-13.999,29.6l15.399,34.399C552.194,164.001,552.994,164.801,558.395,166.801z"/>
	<path d="M564.396,150.001c0-52.399,13-77.799,35.399-77.799c8.399,0,15.2,3.4,19.6,7.8v39.799h-2
		c-12.199-35.6-14.8-43.2-21.199-43.2c-9,0-12.2,23.2-12.2,71.999c0,41.799,7.2,74.399,15.399,74.399c5,0,6.2-4,18-42.799h2V219.6
		c-4.2,4.2-11.6,7.8-19.6,7.8C577.396,227.4,564.396,204,564.396,150.001z"/>
	<path d="M713.193,220.8v4.2h-37.6v-4.2c9.2-1.8,9.6-2,9.6-8v-59.999h-28.799V212.8c0,6,0.399,6.2,9.6,8v4.2h-37.6v-4.2
		c9.2-1.8,9.6-2,9.6-8V87.202c0-6-0.399-6.2-9.6-8v-4.2h37.6v4.2c-9.2,1.8-9.6,2-9.6,8v59.599h28.799V87.202c0-6-0.399-6.2-9.6-8
		v-4.2h37.6v4.2c-9.2,1.8-9.6,2-9.6,8V212.8C703.594,218.8,703.993,219,713.193,220.8z"/>
	<path d="M786.591,220.8v4.2h-35.399v-4.2c13.601-1.6,13.601-0.4,11.2-11.8l-5.6-28h-25.399l-4.801,28c-2,11.4-1.399,10.2,12.4,11.8
		v4.2h-25.8v-4.2c4.4-3,4-4,5.6-11.8l30.2-142.998h2L780.991,209C782.791,217.2,782.392,218,786.591,220.8z M755.592,175.401
		l-12.6-61.799l-10.601,61.799H755.592z"/>
	<path d="M864.391,75.002v4.2c-9.2,1.8-9.6,2-9.6,8l-0.4,144.598h-2l-49.199-111.798l2.601,92.799c0.199,6,0.399,6.2,13.6,8v4.2
		h-30.8v-4.2c9.2-1.8,9.6-2,9.6-8l0.4-144.598h2l49.199,111.599l-2.601-92.599c-0.199-6-0.399-6.2-13.6-8v-4.2H864.391z"/>
	<path d="M869.391,150.001c0-50.399,14.2-77.799,38.6-77.799c8.199,0,16.999,3.6,21.6,7.8v39.799h-2c-11.8-39.399-16.6-43.2-23-43.2
		c-9.8,0-16,17.2-16,74.999c0,56.999,11.2,71.399,18.4,71.399c1.6,0,3-0.6,4-1.8c1.199-1.4,1.8-3.8,1.8-7.4v-49.199
		c0-6-0.4-6.2-14.4-8v-4.2h38v4.2c-7.2,1.8-7.6,2-7.6,8v38c0,4,0.199,6,1.199,14c-7.199,7.2-15.6,10.8-23.199,10.8
		C884.391,227.4,869.391,202,869.391,150.001z"/>
	<path d="M968.39,79.802v66.799h22.399v6H968.39V220.2h10.6c5,0,5.399-0.6,7-5.6l10.6-34.399h2V226.4c-10.6-1-21.2-1.4-27.8-1.4
		H940.39v-4.2c9.2-1.8,9.6-2,9.6-8V87.202c0-6-0.399-6.2-9.6-8v-4.2h30.399c6.6,0,17.2-0.4,27.8-1.4v46.199h-2l-10.6-34.399
		c-1.601-5-2-5.6-7-5.6H968.39z"/>
</g>
</svg>
