<?xml version="1.0" encoding="utf-8"?>
<!-- Generator: Adobe Illustrator 24.1.1, SVG Export Plug-In . SVG Version: 6.00 Build 0)  -->
<svg version="1.1" id="Ebene_1" xmlns="http://www.w3.org/2000/svg" xmlns:xlink="http://www.w3.org/1999/xlink" x="0px" y="0px"
	 viewBox="0 0 1024 281" style="enable-background:new 0 0 1024 281;" xml:space="preserve">
<g>
	<path d="M92.6,217.2v4.2H69.2c-0.6-10.6-0.6-8.4-7.6-37.4c-8-33.2-9-33.8-14.8-33.8h-0.4v59c0,6,0.4,6.2,9.6,8v4.2H18.4v-4.2
		c9.2-1.8,9.6-2,9.6-8V83.6c0-6-0.4-6.2-9.6-8v-4.2h35.2c21.6,0,31.8,13,31.8,35.2c0,26-12.2,39-28.2,41.2c10.8,1,13.2,4.4,22,34.8
		C89,216.2,88,215,92.6,217.2z M66,109.4c0-22.6-4.6-33.6-12.4-33.6c-5.2,0-7.2,2.2-7.2,14.4V145h3.4C59.6,145,66,135.6,66,109.4z"
		/>
	<path d="M168,217.2v4.2h-35.4v-4.2c13.6-1.6,13.6-0.4,11.2-11.8l-5.6-28h-25.4l-4.8,28c-2,11.4-1.4,10.2,12.4,11.8v4.2H94.6v-4.2
		c4.4-3,4-4,5.6-11.8l30.2-143h2l30,143C164.2,213.6,163.8,214.4,168,217.2z M137,171.8L124.4,110l-10.6,61.8H137z"/>
	<path d="M244.4,146.6c0,54.4-17.2,74.8-42,74.8H170v-4.2c9.2-1.8,9.6-2,9.6-8V83.6c0-6-0.4-6.2-9.6-8v-4.2h32.4
		C233.4,71.4,244.4,100.4,244.4,146.6z M225.2,149c0-48.8-8.6-73.2-20-73.2c-5.2,0-7.2,2.2-7.2,14.4v112.4c0,12,2,14.4,7.6,14.4
		C214.8,217,225.2,201.8,225.2,149z"/>
	<path d="M288,217.2v4.2h-37.6v-4.2c9.2-1.8,9.6-2,9.6-8V83.6c0-6-0.4-6.2-9.6-8v-4.2H288v4.2c-9.2,1.8-9.6,2-9.6,8v125.6
		C278.4,215.2,278.8,215.4,288,217.2z"/>
	<path d="M295,146.4c0-52.4,13-77.8,35.4-77.8c8.4,0,15.2,3.4,19.6,7.8v39.8h-2C335.8,80.6,333.2,73,326.8,73
		c-9,0-12.2,23.2-12.2,72c0,41.8,7.2,74.4,15.4,74.4c5,0,6.2-4,18-42.8h2V216c-4.2,4.2-11.6,7.8-19.6,7.8
		C308,223.8,295,200.4,295,146.4z"/>
	<path d="M430.4,217.2v4.2H395v-4.2c13.6-1.6,13.6-0.4,11.2-11.8l-5.6-28h-25.4l-4.8,28c-2,11.4-1.4,10.2,12.4,11.8v4.2H357v-4.2
		c4.4-3,4-4,5.6-11.8l30.2-143h2l30,143C426.6,213.6,426.2,214.4,430.4,217.2z M399.4,171.8L386.8,110l-10.6,61.8H399.4z"/>
	<path d="M493,177.6h2v45.2c-10.6-1-21.2-1.4-29.8-1.4h-32.8v-4.2c9.2-1.8,9.6-2,9.6-8V83.6c0-6-0.4-6.2-9.6-8v-4.2H474v4.2
		c-13.2,1.8-13.6,2-13.6,8v133H476c5,0,5.4-0.6,7-5.6L493,177.6z M554.8,163.2v4.2h-35.2v-4.2c11.4-1.2,12-1,7.2-11.8l-10.4-23.2
		l-9,23.2c-4.2,11-3.2,10.6,5.2,11.8v4.2h-24.2v-4.2c7.2-1.8,6.6-2.8,11.2-11.8l14.6-28.2l-16-35.8c-4-9-4.8-9.8-10.2-11.8v-4.2
		h35.2v4.2c-12.6,1.2-12,1-7.2,11.8l11,24.6l8.4-24.6c3.8-11,3.2-10.6-5.2-11.8v-4.2h24.2v4.2c-7.2,1.8-7,2.8-11.2,11.8l-14,29.6
		l15.4,34.4C548.6,160.4,549.4,161.2,554.8,163.2z"/>
	<path d="M560.8,146.4c0-52.4,13-77.8,35.4-77.8c8.4,0,15.2,3.4,19.6,7.8v39.8h-2C601.6,80.6,599,73,592.6,73
		c-9,0-12.2,23.2-12.2,72c0,41.8,7.2,74.4,15.4,74.4c5,0,6.2-4,18-42.8h2V216c-4.2,4.2-11.6,7.8-19.6,7.8
		C573.8,223.8,560.8,200.4,560.8,146.4z"/>
	<path d="M709.6,217.2v4.2H672v-4.2c9.2-1.8,9.6-2,9.6-8v-60h-28.8v60c0,6,0.4,6.2,9.6,8v4.2h-37.6v-4.2c9.2-1.8,9.6-2,9.6-8V83.6
		c0-6-0.4-6.2-9.6-8v-4.2h37.6v4.2c-9.2,1.8-9.6,2-9.6,8v59.6h28.8V83.6c0-6-0.4-6.2-9.6-8v-4.2h37.6v4.2c-9.2,1.8-9.6,2-9.6,8
		v125.6C700,215.2,700.4,215.4,709.6,217.2z"/>
	<path d="M783,217.2v4.2h-35.4v-4.2c13.6-1.6,13.6-0.4,11.2-11.8l-5.6-28h-25.4l-4.8,28c-2,11.4-1.4,10.2,12.4,11.8v4.2h-25.8v-4.2
		c4.4-3,4-4,5.6-11.8l30.2-143h2l30,143C779.2,213.6,778.8,214.4,783,217.2z M752,171.8L739.4,110l-10.6,61.8H752z"/>
	<path d="M860.8,71.4v4.2c-9.2,1.8-9.6,2-9.6,8l-0.4,144.6h-2l-49.2-111.8l2.6,92.8c0.2,6,0.4,6.2,13.6,8v4.2H785v-4.2
		c9.2-1.8,9.6-2,9.6-8L795,64.6h2l49.2,111.6l-2.6-92.6c-0.2-6-0.4-6.2-13.6-8v-4.2L860.8,71.4L860.8,71.4z"/>
	<path d="M865.8,146.4c0-50.4,14.2-77.8,38.6-77.8c8.2,0,17,3.6,21.6,7.8v39.8h-2C912.2,76.8,907.4,73,901,73c-9.8,0-16,17.2-16,75
		c0,57,11.2,71.4,18.4,71.4c1.6,0,3-0.6,4-1.8c1.2-1.4,1.8-3.8,1.8-7.4V161c0-6-0.4-6.2-14.4-8v-4.2h38v4.2c-7.2,1.8-7.6,2-7.6,8v38
		c0,4,0.2,6,1.2,14c-7.2,7.2-15.6,10.8-23.2,10.8C880.8,223.8,865.8,198.4,865.8,146.4z"/>
	<path d="M964.8,76.2V143h22.4v6h-22.4v67.6h10.6c5,0,5.4-0.6,7-5.6l10.6-34.4h2v46.2c-10.6-1-21.2-1.4-27.8-1.4h-30.4v-4.2
		c9.2-1.8,9.6-2,9.6-8V83.6c0-6-0.4-6.2-9.6-8v-4.2h30.4c6.6,0,17.2-0.4,27.8-1.4v46.2h-2l-10.6-34.4c-1.6-5-2-5.6-7-5.6
		C975.4,76.2,964.8,76.2,964.8,76.2z"/>
</g>
</svg>
